<svg width="280" height="182" viewBox="0 0 280 182" fill="none" xmlns="http://www.w3.org/2000/svg">
<path d="M2.48959 161.033C1.8368 158.019 1.8368 155.243 2.48959 152.705C16.1261 134.087 25.2969 121.975 30.002 116.369C42.3758 101.626 55.4046 87.7502 69.0886 74.7413C82.7726 61.7325 96.6748 49.8802 110.796 39.1841C116.481 34.8774 128.455 26.9146 146.716 15.2958C147.665 14.9014 149.302 14.9014 151.629 15.2958C153.077 58.2415 153.204 102.451 152.009 147.924V147.924C151.814 155.333 145.915 161.325 138.51 161.636C90.8711 163.637 45.5309 163.436 2.48959 161.033ZM25.2378 150.206C57.5234 152.009 91.4857 152.206 127.125 150.796C134.553 150.502 140.476 144.49 140.659 137.059V137.059C141.496 103.047 141.373 69.954 140.288 37.7806C138.493 37.4763 137.23 37.4763 136.498 37.7806C122.411 46.7436 113.174 52.8863 108.788 56.2087C97.895 64.46 87.1705 73.6032 76.6142 83.6386C66.058 93.6739 56.0072 104.378 46.4616 115.752C42.8321 120.076 35.7575 129.42 25.2378 143.782C24.7342 145.74 24.7342 147.881 25.2378 150.206Z" fill="white"/>
<path d="M163.711 51.2555C163.635 46.5711 163.545 41.9007 163.441 37.2442C166.522 39.3634 169.295 41.349 171.759 43.2012C184.929 53.0988 197.894 64.0662 210.656 76.1037C223.418 88.1413 235.569 100.981 247.109 114.624C258.649 128.266 269.035 142.042 278.267 155.952H162.638C162.943 154.86 163.119 153.714 163.15 152.532V152.532C163.222 149.807 163.289 147.085 163.352 144.368H254.257C245.861 132.31 236.414 120.367 225.918 108.541C215.422 96.7141 204.371 85.5833 192.763 75.1481C183.205 66.5548 173.521 58.5907 163.711 51.2555Z" fill="white"/>
</svg>
